<svg id="_x31_" enable-background="new 0 0 24 24" height="512" viewBox="0 0 24 24" width="512" xmlns="http://www.w3.org/2000/svg"><path d="m18.086 17.367c-.128 0-.256-.049-.354-.146l-2.121-2.121c-.195-.195-.512-.195-.707 0s-.195.512 0 .707.195.512 0 .707-.512.195-.707 0c-.585-.585-.585-1.536 0-2.121.585-.584 1.536-.584 2.121 0l2.122 2.121c.195.195.195.512 0 .707-.098.097-.226.146-.354.146z"/><path d="m16.671 15.953c-.128 0-.256-.049-.354-.146-.583-.585-.583-1.536 0-2.121.567-.566 1.555-.566 2.122 0l1.414 1.414c.195.195.195.512 0 .707s-.512.195-.707 0l-1.414-1.414c-.196-.196-.513-.194-.708 0-.194.195-.194.512 0 .707s.195.512 0 .707c-.097.097-.225.146-.353.146z"/><path d="m18.272 23.998c-.368 0-.738-.045-1.102-.138l-3.487-.889c-.13-.033-.241-.116-.308-.232-.238-.408-.484-1.385.292-2.159.344-.344.807-.478 1.259-.509l-4.265-4.265c-.585-.585-.585-1.536 0-2.121.567-.566 1.556-.566 2.122 0l4.242 4.242c.195.195.195.512 0 .707s-.512.195-.707 0l-4.243-4.242c-.188-.188-.517-.188-.707 0-.195.195-.195.512 0 .707l5.303 5.304c.164.164.193.418.072.615s-.36.283-.583.213c-.426-.139-1.421-.31-1.787.056-.28.28-.258.59-.205.776l3.248.828c1.188.305 2.47-.048 3.339-.917l1.219-1.218c1.364-1.365 1.364-3.585 0-4.95l-2.122-2.121c-.189-.189-.518-.189-.707 0-.096.095-.147.22-.148.353 0 .134.052.26.147.354.195.195.195.512 0 .707s-.512.195-.707 0c-.284-.284-.44-.661-.44-1.062 0-.4.157-.777.441-1.06.565-.568 1.554-.568 2.121 0l2.121 2.121c1.754 1.755 1.754 4.609 0 6.364l-1.219 1.218c-.849.853-2.008 1.318-3.189 1.318z"/><path d="m10.5 21h-8c-1.378 0-2.5-1.121-2.5-2.5v-13c0-1.379 1.122-2.5 2.5-2.5h2c.276 0 .5.224.5.5s-.224.5-.5.5h-2c-.827 0-1.5.673-1.5 1.5v13c0 .827.673 1.5 1.5 1.5h8c.276 0 .5.224.5.5s-.224.5-.5.5z"/><path d="m11.5 6h-6c-.827 0-1.5-.673-1.5-1.5v-2c0-.276.224-.5.5-.5h1.55c.233-1.14 1.242-2 2.45-2s2.217.86 2.45 2h1.55c.276 0 .5.224.5.5v2c0 .827-.673 1.5-1.5 1.5zm-6.5-3v1.5c0 .275.224.5.5.5h6c.276 0 .5-.225.5-.5v-1.5h-1.5c-.276 0-.5-.224-.5-.5 0-.827-.673-1.5-1.5-1.5s-1.5.673-1.5 1.5c0 .276-.224.5-.5.5z"/><path d="m16.5 12c-.276 0-.5-.224-.5-.5v-6c0-.827-.673-1.5-1.5-1.5h-2c-.276 0-.5-.224-.5-.5s.224-.5.5-.5h2c1.378 0 2.5 1.121 2.5 2.5v6c0 .276-.224.5-.5.5z"/><path d="m13.5 9h-10c-.276 0-.5-.224-.5-.5s.224-.5.5-.5h10c.276 0 .5.224.5.5s-.224.5-.5.5z"/><path d="m13.5 12h-10c-.276 0-.5-.224-.5-.5s.224-.5.5-.5h10c.276 0 .5.224.5.5s-.224.5-.5.5z"/><path d="m8.5 15h-5c-.276 0-.5-.224-.5-.5s.224-.5.5-.5h5c.276 0 .5.224.5.5s-.224.5-.5.5z"/></svg>