<svg id="Layer_3" enable-background="new 0 0 64 64" height="512" viewBox="0 0 64 64" width="512" xmlns="http://www.w3.org/2000/svg"><path d="m50 44c-1.4 0-2.75-.24-4-.68-1.39 1.71-3.08 3.16-5 4.27-2.65 1.53-5.72 2.41-9 2.41s-6.36-.88-9-2.42c-1.92-1.1-3.61-2.56-5-4.27-1.25.45-2.6.69-4 .69-.15 0-.29 0-.44-.01v.01c1.89 2.9 4.44 5.32 7.44 7.05 3.23 1.88 6.99 2.95 11 2.95s7.77-1.07 11-2.95c3-1.73 5.55-4.15 7.44-7.05v-.01c-.15.01-.29.01-.44.01z" fill="#ffc729"/><path d="m43 12.95c-3.23-1.88-6.99-2.95-11-2.95s-7.77 1.07-11 2.95c-3 1.73-5.55 4.15-7.44 7.05v.01c.15-.01.29-.01.44-.01 1.4 0 2.75.24 4 .69 1.39-1.71 3.08-3.17 5-4.27 2.65-1.54 5.72-2.42 9-2.42s6.36.88 9 2.42c1.87 1.07 3.53 2.48 4.89 4.13l.05.16c1.27-.46 2.63-.71 4.06-.71.15 0 .3 0 .45.01-1.9-2.9-4.45-5.33-7.45-7.06z" fill="#ffc729"/><g fill="#fcd770"><path d="m38 32c0 5.23 3.34 9.67 8 11.32-1.39 1.71-3.08 3.16-5 4.27-2.65 1.53-5.72 2.41-9 2.41s-6.36-.88-9-2.42c-1.92-1.1-3.61-2.56-5-4.27 4.66-1.64 8-6.08 8-11.31s-3.34-9.67-8-11.31c1.39-1.71 3.08-3.17 5-4.27 2.65-1.54 5.72-2.42 9-2.42s6.36.88 9 2.42c1.87 1.07 3.53 2.48 4.89 4.13l.05.16c-4.63 1.66-7.94 6.08-7.94 11.29z"/><path d="m18 20.69c4.66 1.64 8 6.08 8 11.31s-3.34 9.67-8 11.31c-1.25.45-2.6.69-4 .69-.15 0-.29 0-.44-.01-6.43-.23-11.56-5.51-11.56-11.99s5.13-11.76 11.56-11.99c.15-.01.29-.01.44-.01 1.4 0 2.75.24 4 .69z"/><path d="m50.45 20.01c6.42.23 11.55 5.51 11.55 11.99s-5.13 11.76-11.56 11.99c-.15.01-.29.01-.44.01-1.4 0-2.75-.24-4-.68-4.66-1.65-8-6.09-8-11.32 0-5.21 3.31-9.63 7.94-11.29 1.27-.46 2.63-.71 4.06-.71.15 0 .3 0 .45.01z"/></g><path d="m15 41v-2.142c1.72-.447 3-2 3-3.858 0-2.206-1.794-4-4-4-1.103 0-2-.897-2-2s.897-2 2-2 2 .897 2 2h2c0-1.858-1.28-3.411-3-3.858v-2.142h-2v2.142c-1.72.447-3 2-3 3.858 0 2.206 1.794 4 4 4 1.103 0 2 .897 2 2s-.897 2-2 2-2-.897-2-2h-2c0 1.858 1.28 3.411 3 3.858v2.142z"/><path d="m51 25.142v-2.142h-2v2h-3v14h3v2h2v-2.142c1.72-.447 3-2 3-3.858 0-1.193-.525-2.267-1.357-3 .832-.733 1.357-1.807 1.357-3 0-1.858-1.28-3.411-3-3.858zm-1 11.858h-2v-4h2c1.103 0 2 .897 2 2s-.897 2-2 2zm0-6h-2v-4h2c1.103 0 2 .897 2 2s-.897 2-2 2z"/><path d="m32 3c7.103 0 13.975 2.642 19.255 7.322l-3.155-.317-.2 1.99 7.1.715v-6.71h-2v3.212c-5.696-5.24-13.217-8.212-21-8.212-7.068 0-13.725 2.316-19.25 6.699l1.243 1.567c5.168-4.099 11.395-6.266 18.007-6.266z"/><path d="m12.667 10.384-1.334-1.49c-.51.457-1.01.936-1.487 1.423l1.43 1.398c.448-.459.912-.903 1.391-1.331z"/><path d="m32 61c-7.103 0-13.975-2.642-19.255-7.322l3.154.318.2-1.99-7.099-.716v6.71h2v-3.212c5.696 5.24 13.217 8.212 21 8.212 7.068 0 13.725-2.316 19.25-6.699l-1.243-1.567c-5.168 4.099-11.395 6.266-18.007 6.266z"/><path d="m51.333 53.616 1.334 1.49c.51-.457 1.01-.936 1.487-1.423l-1.43-1.398c-.448.459-.912.903-1.391 1.331z"/><path d="m21 31h2v2h-2z"/><path d="m5 31h2v2h-2z"/><path d="m41 31h2v2h-2z"/><path d="m57 31h2v2h-2z"/><path d="m50.998 19.051c-4.297-6.299-11.357-10.051-18.998-10.051-7.64 0-14.701 3.752-18.999 10.051-6.702.513-12.001 6.118-12.001 12.949s5.299 12.436 12.001 12.949c4.299 6.299 11.359 10.051 18.999 10.051s14.7-3.752 18.999-10.051c6.702-.513 12.001-6.118 12.001-12.949s-5.299-12.436-12.002-12.949zm-2.448.035c-.762.085-1.502.238-2.219.45-1.174-1.35-2.515-2.511-3.98-3.465l1.003-1.738c1.966 1.265 3.724 2.865 5.196 4.753zm-17.55 31.886v1.997c-3.052-.144-5.982-.943-8.621-2.303l1.001-1.733c2.343 1.194 4.929 1.899 7.62 2.039zm2 0c2.691-.14 5.277-.846 7.621-2.04l1.001 1.733c-2.64 1.36-5.569 2.16-8.622 2.303zm-1-1.972c-4.707 0-9.118-1.935-12.324-5.322 4.328-2.113 7.324-6.546 7.324-11.678s-2.996-9.565-7.325-11.678c3.207-3.387 7.619-5.322 12.325-5.322 4.698 0 9.116 1.938 12.322 5.324-4.327 2.113-7.322 6.545-7.322 11.676 0 5.132 2.996 9.565 7.325 11.678-3.206 3.387-7.618 5.322-12.325 5.322zm1-35.972v-1.996c3.053.144 5.982.943 8.622 2.303l-1.002 1.735c-2.346-1.195-4.933-1.902-7.62-2.042zm-2 0c-2.69.14-5.277.846-7.621 2.04l-1.001-1.733c2.64-1.361 5.569-2.16 8.621-2.303v1.996zm-10.355 1.305 1.002 1.736c-1.464.954-2.804 2.116-3.979 3.467-.716-.211-1.457-.365-2.219-.45 1.473-1.888 3.231-3.488 5.196-4.753zm-17.645 17.667c0-6.065 4.935-11 11-11s11 4.935 11 11-4.935 11-11 11-11-4.935-11-11zm12.449 12.914c.762-.085 1.503-.238 2.219-.45 1.175 1.351 2.514 2.513 3.979 3.467l-1.002 1.736c-1.965-1.265-3.723-2.865-5.196-4.753zm27.906 4.753-1.002-1.736c1.464-.954 2.804-2.116 3.979-3.467.717.211 1.457.365 2.219.45-1.473 1.888-3.231 3.488-5.196 4.753zm6.645-6.667c-6.065 0-11-4.935-11-11s4.935-11 11-11 11 4.935 11 11-4.935 11-11 11z"/></svg>